<svg xmlns="http://www.w3.org/2000/svg" viewBox="0 0 512 512" width="512" height="512">
  <defs>
    <linearGradient id="bg" x1="0" y1="0" x2="0" y2="1"><stop offset="0" stop-color="#1F6F78"/><stop offset="1" stop-color="#12363B"/></linearGradient>
    <radialGradient id="sun" cx="0.5" cy="0.5" r="0.5"><stop offset="0" stop-color="#F6C58F"/><stop offset="1" stop-color="#E08A5B"/></radialGradient>
  </defs>
  <rect width="512" height="512" rx="112" fill="url(#bg)"/>
  <circle cx="256" cy="232" r="96" fill="url(#sun)"/>
  <path d="M136 250h240a120 120 0 0 1-240 0z" fill="#FBF6EE"/>
  <path d="M120 250h272" stroke="#FBF6EE" stroke-width="16" stroke-linecap="round"/>
  <path d="M128 400c32-20 64-20 96 0s64 20 96 0 48-18 64-8" fill="none" stroke="#9CC7C9" stroke-width="16" stroke-linecap="round"/>
  <path d="M232 160c-10-18 0-34 12-44M268 160c-10-18 0-34 12-44" fill="none" stroke="#FBF6EE" stroke-width="12" stroke-linecap="round" opacity="0.85"/>
</svg>
